<?xml version="1.0" encoding="UTF-8" standalone="no"?>
<!-- Created with Inkscape (http://www.inkscape.org/) -->

<svg
   xmlns:dc="http://purl.org/dc/elements/1.1/"
   xmlns:cc="http://creativecommons.org/ns#"
   xmlns:rdf="http://www.w3.org/1999/02/22-rdf-syntax-ns#"
   xmlns:svg="http://www.w3.org/2000/svg"
   xmlns="http://www.w3.org/2000/svg"
   xmlns:sodipodi="http://sodipodi.sourceforge.net/DTD/sodipodi-0.dtd"
   xmlns:inkscape="http://www.inkscape.org/namespaces/inkscape"
   version="1.1"
   id="svg40"
   width="1227.7805"
   height="914.95624"
   viewBox="0 0 1227.7804 914.95631"
   sodipodi:docname="squirrelly-fit-acorn.svg"
   inkscape:version="0.92.4 (5da689c313, 2019-01-14)">
  <metadata
     id="metadata46">
    <rdf:RDF>
      <cc:Work
         rdf:about="">
        <dc:format>image/svg+xml</dc:format>
        <dc:type
           rdf:resource="http://purl.org/dc/dcmitype/StillImage" />
        <dc:title></dc:title>
      </cc:Work>
    </rdf:RDF>
  </metadata>
  <defs
     id="defs44" />
  <sodipodi:namedview
     pagecolor="#ffffff"
     bordercolor="#666666"
     borderopacity="1"
     objecttolerance="10"
     gridtolerance="10"
     guidetolerance="10"
     inkscape:pageopacity="0"
     inkscape:pageshadow="2"
     inkscape:window-width="1366"
     inkscape:window-height="705"
     id="namedview42"
     showgrid="false"
     inkscape:zoom="0.33281249"
     inkscape:cx="307.40987"
     inkscape:cy="340.51437"
     inkscape:window-x="-8"
     inkscape:window-y="-8"
     inkscape:window-maximized="1"
     inkscape:current-layer="layer2"
     fit-margin-top="0"
     fit-margin-left="0"
     fit-margin-right="0"
     fit-margin-bottom="0" />
  <g
     inkscape:groupmode="layer"
     id="layer1"
     inkscape:label="Acorn"
     transform="translate(-36.109755,-192.5219)">
    <g
       id="g1993"
       transform="rotate(44.974424,1228.0366,578.84144)"
       style="display:inline">
      <g
         id="g1998"
         transform="rotate(-44.595792,1234.3499,592.6493)">
        <path
           sodipodi:nodetypes="ccssccssc"
           style="display:inline;fill:#d27a45;fill-opacity:1;stroke:#9e5c34;stroke-width:5;stroke-linecap:butt;stroke-linejoin:miter;stroke-miterlimit:4;stroke-dasharray:none;stroke-opacity:1"
           d="m 1258.313,601.54226 c -11.8499,-12.71317 -22.1467,-21.71317 -32.8691,-33.23047 -8.7241,5.19557 -10.298,5.96268 -16.0907,12.3794 -4.4862,4.96947 -10.4451,14.30744 -12.3042,20.515 -1.4898,4.97446 -2.0668,9.78973 -0.2301,14.64857 -3.7329,15.75799 0.7673,15.73586 12.957,13.20313 7.6662,2.27976 15.9571,0.43838 22.8906,-3.03907 6.588,-3.30415 11.2497,-6.4817 15.7129,-11.13476 4,-4.17018 7.6941,-8.37081 9.9336,-13.3418 z"
           id="path5870"
           inkscape:connector-curvature="0" />
      </g>
      <path
         transform="rotate(-44.595792,1234.3499,592.6493)"
         style="display:inline;fill:#b5795c;fill-opacity:1;stroke:#9e5c34;stroke-width:5;stroke-linecap:butt;stroke-linejoin:miter;stroke-miterlimit:4;stroke-dasharray:none;stroke-opacity:1"
         d="m 1235.6567,555.22976 c -1.5959,0.0295 -3.1852,0.2942 -4.7226,0.83985 -5.0354,2.44885 -7.2209,9.78351 -3.4902,14.24218 l 32.8691,33.23047 c 5.9548,2.37517 12.6497,-3.12928 12.6289,-9.27734 0.7371,-6.88497 -5.7889,-12.16706 -6.8077,-18.71373 -1.3771,-3.82717 2.6501,-11.6914 -1.8407,-12.98549 -5.0562,-0.89142 -11.0009,1.25954 -15.2793,-2.46289 -3.7167,-2.92986 -8.5696,-4.96153 -13.3575,-4.87305 z"
         id="path3209"
         inkscape:connector-curvature="0"
         sodipodi:nodetypes="ccccccccc" />
    </g>
  </g>
  <g
     inkscape:groupmode="layer"
     id="layer2"
     inkscape:label="Trace"
     style="display:inline"
     transform="translate(-36.109755,-29.855146)">
    <path
       style="fill:#a4683b;fill-opacity:1;stroke:#7b4e2d;stroke-width:10;stroke-linecap:butt;stroke-linejoin:miter;stroke-miterlimit:4;stroke-dasharray:none;stroke-opacity:1"
       d="m 773.32616,308.09209 c 43.97855,-8.65825 56.2653,-67.33356 82.60301,-120.42153 13.3936,-26.99691 46.0339,-42.88965 64.1001,-67.16892 -3.6178,-34.538333 16.6952,-107.27278 62.48749,-79.535493 20.71174,16.77452 47.30824,65.640793 47.30824,65.640793 0,0 12.1687,2.21867 23.2914,5.01732 80.0587,30.68111 131.3402,101.99162 169.4313,167.86027 23.1974,39.84459 -12.3442,73.75094 -48.0636,76.24444 -23.1674,3.78911 -67.6213,-44.44561 -50.4612,3.9949 -17.1857,17.22814 -96.0074,0.79964 -58.4486,36.50015 36.7825,7.58293 67.458,10.1128 109.2028,15.57501 27.1302,2.85056 64.2052,36.75557 56.3987,63.5571 -22.8218,4.8267 -39.3757,31.78349 -67.3773,16.06552 -30.8646,-24.23625 -54.0707,-15.18027 -77.0291,1.11998 -23.6904,16.81994 -48.5915,30.07862 -71.2982,47.60164 -28.65774,22.11545 -37.93739,0.49146 -71.52339,5.58595 -7.5762,24.80595 60.48649,116.61626 39.09602,202.72103 -11.0542,58.97573 -51.76399,73.35667 -62.23416,116.68846 -4.389,19.71904 32.72,16.92233 69.92039,19.25677 8.5481,0.53642 22.69334,1.44553 31.03424,-0.0551 7.3233,-4.47008 43.2223,-19.48865 64.3999,-18.52831 37.368,-1.05454 49.7776,49.38433 47.7768,73.69003 -17.3404,-0.033 -11.2605,0.301 -46.2657,0.092 -72.398,0.1827 -171.08863,-0.4518 -244.88814,-0.3293 -85.1947,0.1413 -165.51157,5.9535 -253.91529,-24.301 C 516.8275,890.30758 449.48223,844.12329 407.7625,778.47218 337.88415,668.51003 377.32589,530.46183 342.02231,411.65791 c -24.8605,-83.66075 -96.64183,36.11255 -76.88938,90.9463 24.97009,69.31815 29.05746,163.72162 -7.85315,223.05493 C 191.29868,735.08096 116.32782,695.82229 89.158594,646.76085 58.459329,591.32495 42.083089,536.52658 41.162019,466.76414 39.789999,362.8468 65.001129,283.80107 130.52972,207.14399 c 65.74052,-76.90499 197.8938,-91.70802 292.50609,-58.16241 68.62786,24.33261 119.61909,70.24273 136.99804,136.43777 22.30377,84.95329 14.45991,137.36582 -13.1913,226.80976 -24.92563,81.17667 -56.07212,188.61604 13.61297,268.42877 12.85942,14.72833 35.59164,37.04022 67.08126,33.24127 C 490.08853,628.34543 626.62676,338.22468 773.32616,308.09209 Z"
       id="path50"
       inkscape:connector-curvature="0"
       sodipodi:nodetypes="cscccccccccccsscccsccccssssscssssscscc" />
  </g>
  <g
     inkscape:groupmode="layer"
     id="layer8"
     inkscape:label="Eye"
     style="display:inline"
     transform="translate(-36.109755,-29.855146)">
    <ellipse
       style="display:inline;opacity:1;fill:#000000;fill-opacity:1;stroke:#000000;stroke-width:2.50006247;stroke-miterlimit:4;stroke-dasharray:none;stroke-opacity:1"
       id="path3211"
       cx="1080.4435"
       cy="-316.18875"
       rx="22.969639"
       ry="19.235344"
       transform="matrix(0.88730256,0.46118778,-0.47004145,0.88264434,0,0)" />
  </g>
</svg>
