<?xml version="1.0" encoding="UTF-8" standalone="no"?>
<!-- Created with Inkscape (http://www.inkscape.org/) -->

<svg
   xmlns:dc="http://purl.org/dc/elements/1.1/"
   xmlns:cc="http://creativecommons.org/ns#"
   xmlns:rdf="http://www.w3.org/1999/02/22-rdf-syntax-ns#"
   xmlns:svg="http://www.w3.org/2000/svg"
   xmlns="http://www.w3.org/2000/svg"
   xmlns:sodipodi="http://sodipodi.sourceforge.net/DTD/sodipodi-0.dtd"
   xmlns:inkscape="http://www.inkscape.org/namespaces/inkscape"
   version="1.1"
   id="svg40"
   width="1300"
   height="1300"
   viewBox="0 0 1299.9999 1300.0001"
   sodipodi:docname="squirrelly-square-differentpaws.svg"
   inkscape:version="0.92.4 (5da689c313, 2019-01-14)">
  <metadata
     id="metadata46">
    <rdf:RDF>
      <cc:Work
         rdf:about="">
        <dc:format>image/svg+xml</dc:format>
        <dc:type
           rdf:resource="http://purl.org/dc/dcmitype/StillImage" />
        <dc:title />
      </cc:Work>
    </rdf:RDF>
  </metadata>
  <defs
     id="defs44" />
  <sodipodi:namedview
     pagecolor="#ffffff"
     bordercolor="#666666"
     borderopacity="1"
     objecttolerance="10"
     gridtolerance="10"
     guidetolerance="10"
     inkscape:pageopacity="0"
     inkscape:pageshadow="2"
     inkscape:window-width="1366"
     inkscape:window-height="705"
     id="namedview42"
     showgrid="false"
     inkscape:zoom="0.33281249"
     inkscape:cx="454.64782"
     inkscape:cy="572.08136"
     inkscape:window-x="-8"
     inkscape:window-y="-8"
     inkscape:window-maximized="1"
     inkscape:current-layer="layer2" />
  <g
     inkscape:groupmode="layer"
     id="layer2"
     inkscape:label="Trace"
     style="display:inline"
     transform="translate(0,162.66675)">
    <path
       style="fill:#a4683b;fill-opacity:1;stroke:#7b4e2d;stroke-width:10;stroke-linecap:butt;stroke-linejoin:miter;stroke-miterlimit:4;stroke-dasharray:none;stroke-opacity:1"
       d="m 616.98764,369.36117 c 43.18843,-47.88237 115.53694,-99.91598 176.65136,-83.80962 43.3428,11.42278 74.2653,16.66644 100.60301,-36.42153 13.3936,-26.99691 46.0339,-42.88965 64.1001,-67.16892 -3.6178,-34.53834 16.6952,-107.272787 62.48749,-79.5355 20.7117,16.77452 47.3082,65.6408 47.3082,65.6408 0,0 12.1687,2.21867 23.2914,5.01732 80.0587,30.68111 131.3402,101.99162 169.4313,167.86027 23.1974,39.84459 -12.3442,73.75094 -48.0636,76.24444 -23.1674,3.78911 -67.6213,-44.44561 -50.4612,3.9949 -17.1857,17.22814 -96.0074,0.79964 -58.4486,36.50015 36.7825,7.58293 67.458,10.1128 109.2028,15.57501 27.1302,2.85056 64.2052,36.75557 56.3987,63.5571 -22.8218,4.8267 -39.3757,31.78349 -67.3773,16.06552 -30.8646,-24.23625 -54.0707,-15.18027 -77.0291,1.11998 -23.6904,16.81994 -48.5915,30.07862 -71.2982,47.60164 -28.6577,22.11545 -73.84269,18.51963 -107.42869,23.61412 -7.5762,24.80595 7.6771,53.93642 5.4085,80.55126 -2.058,24.14337 -10.7632,44.52527 -20.4745,66.38887 -3.3313,8.83445 -1.5863,4.08461 -5.4977,12.6781 -5.5356,12.16184 -13.7633,18.70828 -16.6689,31.76309 -4.389,19.71904 32.72,16.92233 69.9204,19.25677 8.5481,0.53642 22.69329,1.44553 31.03419,-0.0551 7.3233,-4.47008 43.2223,-19.48865 64.3999,-18.52831 37.368,-1.05454 49.7776,49.38433 47.7768,73.69003 -17.3404,-0.033 -11.2605,0.301 -46.2657,0.092 -72.398,0.1827 -171.08859,-0.4518 -244.8881,-0.3293 -85.1947,0.1413 -165.51157,5.9535 -253.91529,-24.301 C 505.14054,841.76704 437.79527,795.58275 396.07554,729.93164 326.19719,619.96949 365.63893,481.92129 330.33535,363.11737 c -24.8605,-83.66075 -96.64183,36.11255 -76.88938,90.9463 24.97009,69.31815 29.05746,163.72162 -7.85315,223.05493 -65.9811,9.42182 -140.95196,-29.83685 -168.121185,-78.89829 -30.69927,-55.4359 -47.07551,-110.23427 -47.99658,-179.99671 -1.37202,-103.91734 23.83911,-182.96307 89.367705,-259.62015 65.74052,-76.904997 197.8938,-91.708027 292.50609,-58.16241 68.62786,24.33261 119.61909,70.24273 136.99804,136.43777 22.30377,84.95329 14.45991,137.36582 -13.1913,226.80976 -24.92563,81.17667 -56.07212,188.61604 13.61297,268.42877 12.85942,14.72833 35.59164,37.04022 67.08126,33.24127 -112.67605,-111.92488 -71.69655,-315.24707 1.13782,-395.99744 z"
       id="path50"
       inkscape:connector-curvature="0"
       sodipodi:nodetypes="ssscccccccccccsscscsssccccssssscssssscscs" />
  </g>
  <g
     inkscape:groupmode="layer"
     id="layer8"
     inkscape:label="Eye"
     style="display:inline"
     transform="translate(0,162.66675)">
    <ellipse
       style="display:inline;opacity:1;fill:#000000;fill-opacity:1;stroke:#000000;stroke-width:2.50006247;stroke-miterlimit:4;stroke-dasharray:none;stroke-opacity:1"
       id="path3211"
       cx="1143.1519"
       cy="-279.3237"
       rx="22.969639"
       ry="19.235344"
       transform="matrix(0.88730256,0.46118778,-0.47004145,0.88264434,0,0)" />
  </g>
</svg>
