<?xml version="1.0" encoding="UTF-8" standalone="no"?>
<svg
   xmlns:dc="http://purl.org/dc/elements/1.1/"
   xmlns:cc="http://creativecommons.org/ns#"
   xmlns:rdf="http://www.w3.org/1999/02/22-rdf-syntax-ns#"
   xmlns:svg="http://www.w3.org/2000/svg"
   xmlns="http://www.w3.org/2000/svg"
   xmlns:sodipodi="http://sodipodi.sourceforge.net/DTD/sodipodi-0.dtd"
   xmlns:inkscape="http://www.inkscape.org/namespaces/inkscape"
   width="1200"
   height="900"
   version="1"
   id="svg30"
   sodipodi:docname="squirrelly_noacorn_fit.svg"
   inkscape:version="0.92.4 (5da689c313, 2019-01-14)">
  <metadata
     id="metadata34">
    <rdf:RDF>
      <cc:Work
         rdf:about="">
        <dc:format>image/svg+xml</dc:format>
        <dc:type
           rdf:resource="http://purl.org/dc/dcmitype/StillImage" />
        <dc:title />
      </cc:Work>
    </rdf:RDF>
  </metadata>
  <sodipodi:namedview
     pagecolor="#ffffff"
     bordercolor="#666666"
     borderopacity="1"
     objecttolerance="10"
     gridtolerance="10"
     guidetolerance="10"
     inkscape:pageopacity="0"
     inkscape:pageshadow="2"
     inkscape:window-width="1366"
     inkscape:window-height="704"
     id="namedview32"
     showgrid="false"
     inkscape:zoom="0.49105691"
     inkscape:cx="421.52601"
     inkscape:cy="469.37578"
     inkscape:window-x="0"
     inkscape:window-y="27"
     inkscape:window-maximized="1"
     inkscape:current-layer="svg30"
     fit-margin-top="0"
     fit-margin-left="0"
     fit-margin-right="0"
     fit-margin-bottom="0" />
  <defs
     id="defs2" />
  <g
     id="g10"
     style="stroke:#9e5c34;stroke-width:5"
     transform="translate(-3.9676314,2.0000198)">
    <path
       d="m 1100.1855,275.89965 c 0,0 -4,38 3,39 7,1 6,-2 6,-2 l 1,-30 z"
       id="path8"
       inkscape:connector-curvature="0"
       style="fill:#ede6d2;stroke:none" />
  </g>
  <path
     d="m 735.21785,265.89966 c 44,-8 56,-67 83,-120 13,-27 45,-51.999987 64,-66.999987 10,-92 60,-107 103,-14 88.00005,20 169.00005,102.999987 199.00005,172.999987 17,39 -12,73 -48,76 -23,4 -67,-45 -50,4 -17,17 -96.00005,1 -59,36 37,8 68,10 110,16 27,3 64,37 56,64 -23,4 -39,31 -67,16 -31,-25 -54,-16 -77,1 -24,17 -49,30 -72.00005,47 -28,22 -38,1 -71,6 -8,25 29,124 23,186 -5,46 -25,94 -46,133 28,16 73,25 101,19 7,-4 43.00005,-19 64.00005,-18 37,-1 50,49 48,74 H 655.21785 c -59,0 -197,-26 -285,-161 -70,-110 -31,-248 -66,-367 -25,-84 -97,36 -77,91 25,69 29,163 -8,223 -155.999997,5 -213.9999967,-142 -215.9999968,-259 -1,-104 20.9999998,-199 88.9999998,-260 68.999997,-62 155.999997,-96.999987 271.999997,-61 170,52 183,242 145,366 -24,82 -56,189 13,269 13,15 36,37 67,33 -137,-186 0,-476 146,-506 z"
     id="path12"
     inkscape:connector-curvature="0"
     style="fill:#a4683b" />
  <path
     d="m 1189.2179,252.89966 c 22,21 -9,58 -27,53 -15,-20 -4,-58 27,-53 z"
     id="path14"
     inkscape:connector-curvature="0" />
  <g
     transform="translate(-5.7821467,-10.100328)"
     id="g26">
    <g
       transform="matrix(0.79901,0.60132,-0.60927,0.79296,19,-212)"
       id="g22">
      <ellipse
         cx="1070.4"
         cy="-316.29999"
         rx="38.900002"
         ry="32.099998"
         id="ellipse18"
         style="fill:#fffffe;fill-opacity:0.2" />
      <ellipse
         cx="1079.6"
         cy="-316"
         rx="23.299999"
         ry="19.200001"
         id="ellipse20" />
    </g>
    <circle
       cx="1064.4"
       cy="178.5"
       r="6.5999999"
       id="circle24"
       style="fill:#ffffff" />
  </g>
  <path
     d="m 899.21785,65.899673 c 3,-19 6,-46 24,-49 19,-3 31,22 40,43 0,0 -13,11 -26,51.999987 -29,-46.999987 -38,-45.999987 -38,-45.999987 z"
     id="path28"
     inkscape:connector-curvature="0"
     style="fill:#d68655" />
</svg>
