<?xml version="1.0" encoding="UTF-8" standalone="no"?>
<svg
   xmlns:dc="http://purl.org/dc/elements/1.1/"
   xmlns:cc="http://creativecommons.org/ns#"
   xmlns:rdf="http://www.w3.org/1999/02/22-rdf-syntax-ns#"
   xmlns:svg="http://www.w3.org/2000/svg"
   xmlns="http://www.w3.org/2000/svg"
   xmlns:sodipodi="http://sodipodi.sourceforge.net/DTD/sodipodi-0.dtd"
   xmlns:inkscape="http://www.inkscape.org/namespaces/inkscape"
   width="1300"
   height="1300"
   version="1"
   id="svg30"
   sodipodi:docname="Squirrelly_minimal_test.svg"
   inkscape:version="0.92.4 (5da689c313, 2019-01-14)">
  <metadata
     id="metadata34">
    <rdf:RDF>
      <cc:Work
         rdf:about="">
        <dc:format>image/svg+xml</dc:format>
        <dc:type
           rdf:resource="http://purl.org/dc/dcmitype/StillImage" />
        <dc:title></dc:title>
      </cc:Work>
    </rdf:RDF>
  </metadata>
  <sodipodi:namedview
     pagecolor="#ffffff"
     bordercolor="#666666"
     borderopacity="1"
     objecttolerance="10"
     gridtolerance="10"
     guidetolerance="10"
     inkscape:pageopacity="0"
     inkscape:pageshadow="2"
     inkscape:window-width="1366"
     inkscape:window-height="704"
     id="namedview32"
     showgrid="false"
     inkscape:zoom="0.24552846"
     inkscape:cx="452.0861"
     inkscape:cy="278.9404"
     inkscape:window-x="0"
     inkscape:window-y="27"
     inkscape:window-maximized="1"
     inkscape:current-layer="svg30" />
  <defs
     id="defs2" />
  <g
     id="g10"
     transform="translate(35.199735,199.89965)"
     style="stroke:#9e5c34;stroke-width:5">
    <path
       d="m 1210,398 -33,-34 c -13,8 -23,17 -29,33 -1,5 -2,10 0,15 -4,15 1,15 13,13 7,2 16,0 23,-3 12,-6 18,-13 26,-24 z"
       id="path4"
       inkscape:connector-curvature="0"
       style="fill:#d27a45;stroke-width:3" />
    <path
       d="m 1187,351 c -9,1 -12,10 -8,15 l 31,32 c 5,2 14,-1 14,-8 1,-6 -4,-12 -6,-18 -1,-4 1,-13 -3,-14 -5,-1 -10,2 -14,-2 -4,-3 -9,-6 -14,-5 z"
       id="path6"
       inkscape:connector-curvature="0"
       style="fill:#b5795c;stroke-width:3" />
    <path
       d="m 1097,278 c 0,0 -4,38 3,39 7,1 6,-2 6,-2 l 1,-30 z"
       id="path8"
       inkscape:connector-curvature="0"
       style="fill:#ede6d2;stroke:none" />
  </g>
  <path
     d="m 771.19973,465.89965 c 44,-8 56,-67 83,-120 13,-27 45,-52 64,-67 10,-92 60,-107 102.99997,-14 88,20 169,103 199,173 17,39 -12,73 -48,76 -23,4 -67,-45 -50,4 -17,17 -96,1 -59,36 37,8 68,10 110,16 27,3 64,37 56,64 -23,4 -39,31 -67,16 -31,-25 -54,-16 -77,1 -24,17 -49,30 -72,47 -27.99997,22 -37.99997,1 -70.99997,6 -8,25 29,124.00003 23,186.00003 -5,46 -25,94 -46,133.00002 28,16 73,25 100.99997,19 7,-4 43,-19 64,-18 37,-1 50,49 48,74 H 691.19973 c -59,0 -197,-26 -285,-161.00002 -70,-110 -31,-248.00003 -66,-367.00003 -25,-84 -97,36 -77,91 25,69 29,163.00003 -8,223.00003 -155.999995,5 -213.999995,-142.00003 -215.999995,-259.00003 -1,-104 21,-199 88.999995,-260 69,-62 156,-97 272,-61 170,52 183,242 145,366 -24,82 -56,189.00003 13,269.00003 13,15 36,37 67,33 -137,-186.00003 0,-476.00003 146,-506.00003 z"
     id="path12"
     inkscape:connector-curvature="0"
     style="fill:#a4683b" />
  <path
     d="m 1225.1997,452.89965 c 22,21 -9,58 -27,53 -15,-20 -4,-58 27,-53 z"
     id="path14"
     inkscape:connector-curvature="0" />
  <g
     transform="translate(30.199735,189.89965)"
     id="g26">
    <g
       transform="matrix(0.79901,0.60132,-0.60927,0.79296,19,-212)"
       id="g22">
      <ellipse
         cx="1070.4"
         cy="-316.29999"
         rx="38.900002"
         ry="32.099998"
         id="ellipse18"
         style="fill:#fffffe;fill-opacity:0.2" />
      <ellipse
         cx="1079.6"
         cy="-316"
         rx="23.299999"
         ry="19.200001"
         id="ellipse20" />
    </g>
    <circle
       cx="1064.4"
       cy="178.5"
       r="6.5999999"
       id="circle24"
       style="fill:#ffffff" />
  </g>
  <path
     d="m 935.19973,265.89965 c 3,-19 6,-46 24,-49 19,-3 31,22 40,43 0,0 -13,11 -26,52 -29,-47 -38,-46 -38,-46 z"
     id="path28"
     inkscape:connector-curvature="0"
     style="fill:#d68655" />
</svg>
