<svg xmlns="http://www.w3.org/2000/svg" width="1300" height="1300" version="1"><path fill="#a4683b" stroke="#7b4e2d" stroke-width="10" d="M617 532c43-48 116-100 177-84 43 12 74 17 100-36 14-27 46-43 64-67-3-35 17-108 63-80 21 17 47 66 47 66l23 5c80 30 132 102 170 168 23 39-12 73-48 76-23 4-68-45-51 4-17 17-96 1-58 36 37 8 67 10 109 16 27 3 64 37 56 63-22 5-39 32-67 17-31-25-54-16-77 1-24 16-49 30-71 47-29 22-74 19-108 24-7 25 8 54 6 80-2 25-11 45-21 67l-5 13c-6 12-14 18-17 31-4 20 33 17 70 20 9 0 23 1 31-1 7-4 43-19 64-18 38-1 50 49 48 74h-46l-245-1c-85 1-165 6-254-24-72-25-139-71-181-136-70-110-30-248-66-367-25-84-96 36-77 91 25 69 30 163-7 223-66 9-141-30-169-79-30-56-47-110-48-180-1-104 24-183 90-260s198-91 292-58c69 24 120 70 137 137 23 84 15 137-13 226-25 82-56 189 14 269 13 15 35 37 67 33-113-112-72-315 1-396z"/><ellipse cx="1143" cy="-279" stroke="#000" stroke-width="3" rx="23" ry="19" transform="matrix(.8873 .46119 -.47004 .88264 0 163)"/></svg>